<?xml version="1.0" standalone="no"?>
<!DOCTYPE svg PUBLIC "-//W3C//DTD SVG 20010904//EN"
 "http://www.w3.org/TR/2001/REC-SVG-20010904/DTD/svg10.dtd">
<svg version="1.0" xmlns="http://www.w3.org/2000/svg"
 width="240.000000pt" height="240.000000pt" viewBox="0 0 240.000000 240.000000"
 preserveAspectRatio="xMidYMid meet">
<metadata>
Created by potrace 1.14, written by Peter Selinger 2001-2017
</metadata>
<g transform="translate(0.000000,240.000000) scale(0.100000,-0.100000)"
fill="#000000" stroke="none">
<path d="M1027 2094 c-1 -1 -36 -4 -77 -8 -41 -3 -84 -7 -95 -10 -11 -2 -40
-7 -65 -10 -25 -3 -60 -10 -79 -16 -19 -5 -38 -7 -42 -4 -5 3 -9 0 -9 -7 0 -7
-3 -10 -6 -6 -3 3 -18 1 -33 -5 -14 -5 -33 -11 -41 -13 -42 -9 -149 -51 -186
-73 -23 -14 -50 -39 -60 -56 -27 -46 -28 -131 -3 -179 19 -38 55 -76 72 -77 4
0 23 -10 42 -23 29 -20 33 -26 22 -40 -25 -32 -106 -66 -197 -84 -66 -13 -100
-25 -100 -35 0 -5 -4 -7 -9 -4 -16 10 -84 -59 -107 -108 -18 -40 -22 -65 -22
-134 2 -137 43 -226 158 -341 162 -164 380 -269 665 -322 33 -6 74 -12 90 -14
17 -2 30 -4 30 -5 0 -7 123 -13 255 -14 144 0 276 7 327 18 11 2 43 8 70 12
53 9 62 11 66 13 18 15 49 5 87 -31 112 -101 212 -192 232 -210 13 -11 37 -32
53 -46 58 -52 130 -109 171 -136 44 -28 81 -27 68 3 -3 9 -9 24 -11 33 -3 10
-9 18 -14 18 -5 0 -9 5 -9 11 0 7 -46 66 -102 133 -126 150 -108 129 -184 211
-35 38 -64 72 -64 76 0 3 29 19 65 35 36 16 65 32 65 37 0 4 5 7 11 7 30 0
219 178 219 206 0 4 6 15 13 23 18 21 56 117 63 161 4 19 8 83 9 142 6 215
-74 397 -244 555 -31 29 -62 53 -68 53 -7 0 -13 4 -13 9 0 5 -9 13 -20 16 -11
3 -26 12 -32 19 -12 11 -159 85 -213 106 -53 21 -110 42 -110 39 0 -1 -16 3
-35 9 -19 6 -46 13 -60 16 -14 2 -47 9 -75 15 -67 14 -120 22 -180 27 -54 5
-284 12 -288 8z m-47 -229 c54 -3 104 -22 129 -49 l22 -24 -30 -21 c-17 -12
-39 -24 -48 -26 -10 -2 -31 -8 -48 -13 -36 -11 -119 -7 -171 7 -50 14 -100 53
-89 70 11 19 95 54 133 56 17 1 35 5 38 8 4 4 11 4 17 0 5 -3 27 -7 47 -8z"/>
</g>
</svg>
